<svg xmlns="http://www.w3.org/2000/svg" xmlns:xlink="http://www.w3.org/1999/xlink" width="89.534" height="45.157" viewBox="0 0 89.534 45.157">
  <defs>
    <clipPath id="clip-path">
      <path id="パス_1106" data-name="パス 1106" d="M24.449,9.878c0-3.091,1.463-5.068,3.766-5.068,1.844,0,2.842,1.131,2.842,3.023v5.7a3.678,3.678,0,0,1-2.763,1.432c-2.376,0-3.846-1.767-3.846-5.083M22.243,10.9c0,3.575,2.251,5.8,4.569,5.8a5.221,5.221,0,0,0,4.246-2.145v2.871c-5.4.556-8.675,4.235-8.675,9.484s3.7,9.01,9.676,9.01c4.534,0,6.962-3.064,9.872-6.643v4.133c0,1.148-.323,1.475-1.271,1.739v.469h4.771V35.15c-.947-.263-1.272-.591-1.272-1.739V26.633c3.828-4.271,9.15-8.406,20.033-8.406,2.991,0,8.159.838,10.444,1.936.457.221.541-.071.211-.322C72.519,18.074,67.633,16.7,64.184,16.7c-10.678,0-16.1,4.318-20.025,8.74V17.218h-.48c-.523.235-2.486,1.077-3.151,1.31v.553c1.03-.2,1.4.066,1.4,1.656V28.09c-2.945,3.629-5.366,6.724-9.552,6.724-3.856,0-6.915-3.07-6.915-8.473,0-4.5,2.172-7.487,5.593-8.126v1.412c0,1.148-.323,1.474-1.271,1.737v.471h4.771v-.471c-.947-.263-1.271-.59-1.271-1.737v-1.5c3.25.295,4.62,2.4,5.554,5.061h.5V17.431h-.558a1.7,1.7,0,0,1-2.312.82,8.8,8.8,0,0,0-3.184-.866V4.251H32.8a4.07,4.07,0,0,1-1.346.714,5.37,5.37,0,0,0-3.191-.958c-3.39,0-6.023,2.927-6.023,6.894" transform="translate(-22.243 -4.007)" fill="none"/>
    </clipPath>
    <linearGradient id="linear-gradient" x1="-0.632" y1="1.226" x2="-0.604" y2="1.226" gradientUnits="objectBoundingBox">
      <stop offset="0" stop-color="#007bce"/>
      <stop offset="1" stop-color="#002e85"/>
    </linearGradient>
    <clipPath id="clip-path-2">
      <path id="パス_1107" data-name="パス 1107" d="M45.547,13.32c0-1.617,1.209-2.913,4.7-4.216v4.8a4.209,4.209,0,0,1-2.979,1.265,1.689,1.689,0,0,1-1.724-1.853m-1.728-6.4c0,.669.284,1.221,1.137,1.221a1,1,0,0,0,1.119-1.2c-.165-1.412.433-2.266,1.895-2.266,1.88,0,2.28.778,2.28,2.919v.763c-5.309,1.69-6.968,3.277-6.968,5.61a2.547,2.547,0,0,0,.044.457A2.479,2.479,0,0,1,42,15.157c-.48,0-.764-.232-.764-1.194v-9.7h-3.5v.46C38.681,4.989,39,5.317,39,6.463V13.5a3.748,3.748,0,0,1-2.817,1.521c-1.53,0-2.145-.564-2.145-2.253v-8.5h-3.5v.46c.947.263,1.271.591,1.271,1.737v6.5c0,2.651,1.385,3.754,3.083,3.754A5.328,5.328,0,0,0,39,14.518c0,1.611.817,2.223,1.839,2.223a4.01,4.01,0,0,0,2.674-1.7,2.947,2.947,0,0,0,2.667,1.671,6.025,6.025,0,0,0,4.073-1.99c.071,1.457.854,2.015,1.832,2.015,1.062,0,2.181-1.012,2.912-2V14.02a3.2,3.2,0,0,1-1.757,1.137c-.478,0-.764-.232-.764-1.194V7.5c0-2.468-1.166-3.524-4.274-3.524-2.775,0-4.386,1.406-4.386,2.945" transform="translate(-30.542 -3.977)" fill="none"/>
    </clipPath>
    <linearGradient id="linear-gradient-2" x1="-1.878" y1="3.069" x2="-1.817" y2="3.069" xlink:href="#linear-gradient"/>
    <clipPath id="clip-path-3">
      <path id="パス_1108" data-name="パス 1108" d="M40.686,26.11c0-1.618,1.208-2.913,4.7-4.216v4.8a4.2,4.2,0,0,1-2.978,1.266,1.689,1.689,0,0,1-1.724-1.854m-1.73-6.4c0,.668.284,1.221,1.137,1.221a1,1,0,0,0,1.119-1.2c-.165-1.411.435-2.266,1.9-2.266,1.88,0,2.279.778,2.279,2.919v.763c-5.309,1.69-6.968,3.276-6.968,5.611a2.85,2.85,0,0,0,2.9,2.748A6.031,6.031,0,0,0,45.4,27.516c.069,1.456.854,2.015,1.83,2.015,1.062,0,2.182-1.012,2.912-2V26.81a3.207,3.207,0,0,1-1.757,1.137c-.478,0-.764-.23-.764-1.194V20.291c0-2.466-1.164-3.524-4.274-3.524-2.773,0-4.386,1.408-4.386,2.946" transform="translate(-38.42 -16.767)" fill="none"/>
    </clipPath>
    <linearGradient id="linear-gradient-3" x1="-4.931" y1="1.562" x2="-4.803" y2="1.562" xlink:href="#linear-gradient"/>
    <clipPath id="clip-path-4">
      <path id="パス_1109" data-name="パス 1109" d="M19.109,4.208l3.052,7.1a13.423,13.423,0,0,0-7.01,1.859ZM19.756,0,12.705,16.029c-.5,1.114-.889,1.641-1.991,1.9V18.4h3.858v-.469c-.869-.263-1.2-.722-.7-1.871.947-2.158,4.049-3.734,8.711-3.76l1.615,3.76c.493,1.149.211,1.608-.665,1.871V18.4h5.617v-.469a2.664,2.664,0,0,1-2.024-1.9L20.272,0Z" transform="translate(-10.714)" fill="none"/>
    </clipPath>
    <linearGradient id="linear-gradient-4" x1="-0.874" y1="2.454" x2="-0.792" y2="2.454" xlink:href="#linear-gradient"/>
    <clipPath id="clip-path-5">
      <path id="パス_1110" data-name="パス 1110" d="M54.006,26.11c0-1.618,1.208-2.913,4.7-4.216v4.8a4.2,4.2,0,0,1-2.978,1.266,1.689,1.689,0,0,1-1.724-1.854m-1.73-6.4c0,.668.286,1.221,1.138,1.221a1,1,0,0,0,1.119-1.2c-.167-1.411.433-2.266,1.895-2.266,1.88,0,2.279.778,2.279,2.919v.763c-5.307,1.69-6.966,3.276-6.966,5.611a2.85,2.85,0,0,0,2.9,2.748,6.028,6.028,0,0,0,4.074-1.991c.071,1.456.856,2.015,1.832,2.015,1.06,0,2.181-1.012,2.91-2V26.81A3.2,3.2,0,0,1,61.7,27.947c-.478,0-.764-.23-.764-1.194V20.291c0-2.466-1.166-3.524-4.276-3.524-2.773,0-4.386,1.408-4.386,2.946" transform="translate(-51.741 -16.767)" fill="none"/>
    </clipPath>
    <linearGradient id="linear-gradient-5" x1="-6.642" y1="1.562" x2="-6.514" y2="1.562" xlink:href="#linear-gradient"/>
    <clipPath id="clip-path-6">
      <path id="パス_1111" data-name="パス 1111" d="M49.768,18.936v-2.16h-.481c-.523.233-2.485,1.077-3.151,1.31v.553c1.032-.2,1.4.066,1.4,1.656v6.687c0,1.148-.323,1.475-1.271,1.739v.469h4.771v-.469c-.947-.263-1.271-.591-1.271-1.739v-6.9a6.915,6.915,0,0,1,1.114-1.339,1.378,1.378,0,0,1,1.97.35,1.177,1.177,0,0,0,2.048-.723c0-1.057-.708-1.6-1.787-1.6-1.135,0-2.462,1.044-3.346,2.173" transform="translate(-46.136 -16.763)" fill="none"/>
    </clipPath>
    <linearGradient id="linear-gradient-6" x1="-7.916" y1="1.605" x2="-7.745" y2="1.605" xlink:href="#linear-gradient"/>
    <clipPath id="clip-path-7">
      <path id="パス_1112" data-name="パス 1112" d="M0,12.637C3.646,27.493,21.624,31.255,24.609,23.261a10.117,10.117,0,0,0,5.8-1.644l.245-.627a11.182,11.182,0,0,1-5.987,1.758C23.537,15.673,16.375,11.5,7.846,11.5A28.2,28.2,0,0,0,0,12.637" transform="translate(0 -11.497)" fill="none"/>
    </clipPath>
    <radialGradient id="radial-gradient" cx="0.644" cy="0.28" r="0.803" gradientTransform="matrix(0.645, 0, 0, -1, 0, 2.821)" gradientUnits="objectBoundingBox">
      <stop offset="0" stop-color="#c9d11b"/>
      <stop offset="1" stop-color="#008a32"/>
    </radialGradient>
    <clipPath id="clip-path-8">
      <path id="パス_1113" data-name="パス 1113" d="M24.162,18.436a5.52,5.52,0,0,1-.122,3.843c-4.993-1.381-11.45,4.127-11.651,13.554,11.695-.379,15.322-10.068,12.05-13.375a5.534,5.534,0,0,0-.032-4.649Z" transform="translate(-12.389 -17.809)" fill="none"/>
    </clipPath>
    <radialGradient id="radial-gradient-2" cx="0.489" cy="0.295" r="0.542" gradientTransform="matrix(1.176, 0, 0, -1, 0.214, 2.039)" xlink:href="#radial-gradient"/>
    <clipPath id="clip-path-9">
      <rect id="長方形_201" data-name="長方形 201" width="89.534" height="45.156" fill="none"/>
    </clipPath>
    <clipPath id="clip-path-10">
      <path id="パス_1115" data-name="パス 1115" d="M5.146,18.974C7.432,21.8,13.074,23.7,15.667,23.282c2.354-.379,2.342-2.054,1.271-2.924-.928-.75-2.972-.947-4.686-.511A7.712,7.712,0,0,1,6,18.377a.994.994,0,0,0-.648-.314c-.4,0-.587.447-.211.911" transform="translate(-4.941 -18.063)" fill="none"/>
    </clipPath>
    <radialGradient id="radial-gradient-3" cx="0.731" cy="0.433" r="0.929" gradientTransform="matrix(0.425, 0, 0, -1, -0.315, 6.385)" gradientUnits="objectBoundingBox">
      <stop offset="0" stop-color="#d9f0fc"/>
      <stop offset="1" stop-color="#0092e5"/>
    </radialGradient>
    <clipPath id="clip-path-12">
      <path id="パス_1119" data-name="パス 1119" d="M15.876,31.573a1.71,1.71,0,0,0,1.062.394h.042c1.832-.02,3.828-2.94,3.731-5.784-.087-.008-.177-.012-.268-.012-2.76,0-6.626,3.767-4.568,5.4" transform="translate(-15.295 -26.171)" fill="none"/>
    </clipPath>
    <radialGradient id="radial-gradient-4" cx="0.615" cy="0.727" r="0.795" gradientTransform="matrix(0.829, 0, 0, -1, -0.526, 2)" xlink:href="#radial-gradient-3"/>
  </defs>
  <g id="グループ_307" data-name="グループ 307" transform="translate(0 0)">
    <g id="グループ_265" data-name="グループ 265" transform="translate(33.453 6.027)">
      <g id="グループ_264" data-name="グループ 264" clip-path="url(#clip-path)">
        <rect id="長方形_193" data-name="長方形 193" width="52.933" height="31.914" transform="translate(0 -0.001)" fill="url(#linear-gradient)"/>
      </g>
    </g>
    <g id="グループ_267" data-name="グループ 267" transform="translate(45.934 5.981)">
      <g id="グループ_266" data-name="グループ 266" clip-path="url(#clip-path-2)">
        <rect id="長方形_194" data-name="長方形 194" width="24.457" height="12.764" transform="translate(0 -0.001)" fill="url(#linear-gradient-2)"/>
      </g>
    </g>
    <g id="グループ_269" data-name="グループ 269" transform="translate(57.782 25.217)">
      <g id="グループ_268" data-name="グループ 268" clip-path="url(#clip-path-3)">
        <rect id="長方形_195" data-name="長方形 195" width="11.717" height="12.764" transform="translate(0 -0.001)" fill="url(#linear-gradient-3)"/>
      </g>
    </g>
    <g id="グループ_271" data-name="グループ 271" transform="translate(16.113 0)">
      <g id="グループ_270" data-name="グループ 270" clip-path="url(#clip-path-4)">
        <rect id="長方形_196" data-name="長方形 196" width="18.439" height="18.402" transform="translate(0 -0.001)" fill="url(#linear-gradient-4)"/>
      </g>
    </g>
    <g id="グループ_273" data-name="グループ 273" transform="translate(77.816 25.217)">
      <g id="グループ_272" data-name="グループ 272" clip-path="url(#clip-path-5)">
        <rect id="長方形_197" data-name="長方形 197" width="11.716" height="12.764" transform="translate(0 -0.001)" fill="url(#linear-gradient-5)"/>
      </g>
    </g>
    <g id="グループ_275" data-name="グループ 275" transform="translate(69.387 25.211)">
      <g id="グループ_274" data-name="グループ 274" clip-path="url(#clip-path-6)">
        <rect id="長方形_198" data-name="長方形 198" width="8.765" height="12.427" transform="translate(0 -0.001)" fill="url(#linear-gradient-6)"/>
      </g>
    </g>
    <g id="グループ_277" data-name="グループ 277" transform="translate(0 17.291)">
      <g id="グループ_276" data-name="グループ 276" clip-path="url(#clip-path-7)">
        <rect id="長方形_199" data-name="長方形 199" width="30.651" height="19.758" transform="translate(0 -0.001)" fill="url(#radial-gradient)"/>
      </g>
    </g>
    <g id="グループ_279" data-name="グループ 279" transform="translate(18.633 26.784)">
      <g id="グループ_278" data-name="グループ 278" clip-path="url(#clip-path-8)">
        <rect id="長方形_200" data-name="長方形 200" width="15.322" height="18.023" transform="translate(0 -0.001)" fill="url(#radial-gradient-2)"/>
      </g>
    </g>
    <g id="グループ_281" data-name="グループ 281" transform="translate(0 0)">
      <g id="グループ_280" data-name="グループ 280" clip-path="url(#clip-path-9)">
        <path id="パス_1114" data-name="パス 1114" d="M2.592,14.361a.139.139,0,0,0,.02.2c4.522,3.7,13.5,6.78,18.2,6.953a.14.14,0,0,0,.011-.28c-4.566-.167-13.63-3.279-18.037-6.89a.14.14,0,0,0-.2.02" transform="translate(1.29 7.212)" fill="#fff"/>
      </g>
    </g>
    <g id="グループ_283" data-name="グループ 283" transform="translate(7.431 27.166)">
      <g id="グループ_282" data-name="グループ 282" clip-path="url(#clip-path-10)">
        <rect id="長方形_202" data-name="長方形 202" width="13.251" height="5.635" transform="translate(-0.171 -0.001)" fill="url(#radial-gradient-3)"/>
      </g>
    </g>
    <g id="グループ_285" data-name="グループ 285" transform="translate(0 0)">
      <g id="グループ_284" data-name="グループ 284" clip-path="url(#clip-path-9)">
        <path id="パス_1116" data-name="パス 1116" d="M5.358,18.573a.12.12,0,0,0-.02.168A12.206,12.206,0,0,0,9.645,21.46a.12.12,0,0,0,.15-.078.118.118,0,0,0-.078-.149,12.125,12.125,0,0,1-4.19-2.641.121.121,0,0,0-.168-.02" transform="translate(2.677 9.348)" fill="#fff"/>
        <path id="パス_1117" data-name="パス 1117" d="M10.422,19.476c1.811-.271,3.45.349,3.816.967.417.7-.159,1.307-.632.609-.59-.872-1.484-1.05-3.041-1.135-.484-.027-.481-.391-.143-.441" transform="translate(5.132 9.783)" fill="#fff"/>
        <path id="パス_1118" data-name="パス 1118" d="M22.742,21.6A30.849,30.849,0,0,1,14.2,31.56a.141.141,0,0,0-.039.194.139.139,0,0,0,.194.038A31.158,31.158,0,0,0,23,21.712a.139.139,0,1,0-.253-.117" transform="translate(7.123 10.843)" fill="#fff"/>
      </g>
    </g>
    <g id="グループ_287" data-name="グループ 287" transform="translate(23.003 39.36)">
      <g id="グループ_286" data-name="グループ 286" clip-path="url(#clip-path-12)">
        <rect id="長方形_204" data-name="長方形 204" width="6.99" height="5.796" transform="translate(-1.478 -0.001)" fill="url(#radial-gradient-4)"/>
      </g>
    </g>
    <g id="グループ_289" data-name="グループ 289" transform="translate(0 0)">
      <g id="グループ_288" data-name="グループ 288" clip-path="url(#clip-path-9)">
        <path id="パス_1120" data-name="パス 1120" d="M16.261,30.617c.925.4,2.47-.946,3.1-2.164.156-.307-.095-.32-.242-.1-.513.785-1.408,1.6-2.035,1.507-1-.149-1.268.561-.818.753" transform="translate(8.088 14.214)" fill="#fff"/>
        <path id="パス_1121" data-name="パス 1121" d="M19.047,26.545a5.888,5.888,0,0,0-2.468,1.322.119.119,0,0,0,.012.168.118.118,0,0,0,.168-.011,5.775,5.775,0,0,1,2.313-1.242.122.122,0,0,0,.107-.131.12.12,0,0,0-.132-.107" transform="translate(8.34 13.378)" fill="#fff"/>
      </g>
    </g>
  </g>
</svg>
