<svg xmlns="http://www.w3.org/2000/svg" xmlns:xlink="http://www.w3.org/1999/xlink" width="131.185" height="29" viewBox="0 0 131.185 29">
  <defs>
    <clipPath id="clip-path">
      <rect id="長方形_207" data-name="長方形 207" width="131.185" height="29" fill="none"/>
    </clipPath>
  </defs>
  <g id="グループ_306" data-name="グループ 306" transform="translate(0 0)">
    <rect id="長方形_206" data-name="長方形 206" width="131.185" height="29" transform="translate(0 0)" fill="#007cc6"/>
    <g id="グループ_292" data-name="グループ 292" transform="translate(0 0)">
      <g id="グループ_291" data-name="グループ 291" clip-path="url(#clip-path)">
        <path id="パス_1122" data-name="パス 1122" d="M85.817,7.514H89V6.03H83.23V4.945H81.746V6.03H75.979V7.514h3.18c-.091,4.466-1.817,6.933-3.463,8.278V17.6a9.721,9.721,0,0,0,1.177-.876c1.682-1.466,3.675-4.243,3.77-9.211h1.1v8.574H78.122v1.484h3.625v1.644H83.23V17.573h3.625V16.089H83.23V7.514h1.1c.094,4.968,2.088,7.745,3.77,9.211a9.6,9.6,0,0,0,1.177.876V15.792c-1.647-1.345-3.374-3.812-3.463-8.278M51.141,16.99V8.37H49.657v8.62a2.229,2.229,0,0,0,2.227,2.227h10V17.733h-10a.743.743,0,0,1-.743-.743M56.964,4.945h-1.5L55.319,6.03H49.025V7.514H55.12L55,8.37H52.241v8.506h6.044a3.6,3.6,0,0,0,3.6-3.6V11.966a3.6,3.6,0,0,0-3.6-3.6H56.5l.116-.856h5.594V6.03H56.817Zm1.321,10.447h-4.56v-.856h6.254a2.109,2.109,0,0,1-1.694.856M60.4,13.051H53.725v-.856H60.4Zm-2.113-3.2a2.109,2.109,0,0,1,1.694.856H53.725V9.854Zm45.368-4.909h-1.51l.265,1.41h-.753V4.945H100.17v1.41H97.022V7.839h3.148v.8H97.347v10.58h1.484v-3h1.339v3h1.484v-3H103.1v.773a.743.743,0,0,1-.743.743v1.484a2.229,2.229,0,0,0,2.227-2.227V10.863a2.23,2.23,0,0,0-2.227-2.227h-.7v-.8h3.027V6.355h-.764Zm-3.482,9.786H98.833V13.158h1.337Zm0-3.056H98.833V10.122h1.337Zm2.929,3.056h-1.445V13.158H103.1Zm-.743-4.611a.744.744,0,0,1,.743.743v.812h-1.445V10.122Zm-8.033,3.661H91.076v5.432h3.248a2.228,2.228,0,0,0,2.227-2.225v-.98a2.229,2.229,0,0,0-2.227-2.227m.743,3.207a.743.743,0,0,1-.743.741H92.56V15.266h1.764a.743.743,0,0,1,.743.743ZM95.034,4.945H91.6l-1.522,6.1h1.529l.171-.687h1.086v1.313H90.779V13.16h5.739V11.676H94.349V10.363h1.086l.171.687h1.529L95.755,5.508a.741.741,0,0,0-.72-.563m-.685,3.933V7.431H92.865V8.879H92.15l.611-2.449h1.694l.61,2.449ZM118.93,7.671l.009.006.023.009.038,0Zm-3.54,2.753c.764,0,.929-.328.929-.6l-.056-.207a.244.244,0,0,0-.224-.157c-.076,0-.16.045-.29.165a.437.437,0,0,1-.192.118l-.375.03c-.312,0-.472-.071-.472-.2a.633.633,0,0,0-.085-.254l.011-.024c.006,0,.077-.171.077-.171.008-.021.053-.262.053-.262.009-.033.021-.033.044-.033a1.841,1.841,0,0,0,.628-.061.688.688,0,0,0,.345-.681c0-.035-.048-.534-.048-.534a1.121,1.121,0,0,1-.035-.136c0-.006-.023-.076-.023-.076l.073-.327,0-.194c0-.507-.15-.8-.452-.861a3.308,3.308,0,0,0-.711-.068h-.741a.84.84,0,0,0-.368.088l-.129.054L113.238,6c.006,0-.247-.047-.247-.047a.522.522,0,0,0-.531.4,2.4,2.4,0,0,0-.053.6l-.006.48v.679a.616.616,0,0,0,.318.617,1.854,1.854,0,0,0,.449.094c.088.014.088.038.088.07a.853.853,0,0,1-.135.47.807.807,0,0,1-.331.316l-.315.1-.328.065a.4.4,0,0,0-.278.374.314.314,0,0,0,.357.321,1.659,1.659,0,0,0,.782-.238,1.581,1.581,0,0,0,.631-.575l.153-.415.1-.381c.027-.083.056-.083.088-.083s.118,0,.138.254l.053.183a.227.227,0,0,0,.018.05l-.014.033-.054.2a.909.909,0,0,0,.13.543c.011.014.038.018.051.032a.266.266,0,0,0-.177.231l-.02.263-.658-.015-.307.079c.006-.006-.021,0-.042.02a.076.076,0,0,0-.018-.015l-.274-.083-.384.048c-.28.074-.34.228-.34.34a.292.292,0,0,0,.168.253l.219.076.188-.023c.018-.006.121-.033.121-.033l.263-.091c0-.008.033-.018.056-.038l.218.07.121-.012h.017l.05-.011.564.018c.026.011.038.079.038.079,0,.027-.047.044-.138.053a1.633,1.633,0,0,0-.607.1.881.881,0,0,0-.371.849l-.014.635v.64a.688.688,0,0,0,.123.455.542.542,0,0,0,.428.145l.44-.041c.009-.006.151-.08.151-.08l.023-.012c0,.009.035.023.035.023s.2.057.2.057l.25-.023.044,0h.039l.116,0,.318.029.1.006a.543.543,0,0,0,.413-.144.794.794,0,0,0,.2-.6l-.014-.644-.014-.628a.644.644,0,0,0-.4-.679c-.014,0-.582-.068-.582-.068-.153-.02-.153-.064-.153-.1,0,0,.047-.05.275-.05h.135l.118.011.793.057.218-.109c.006,0,.085-.225.085-.225,0-.07-.024-.33-.4-.348l-.678-.011-.405.017-.071-.023a.409.409,0,0,1,0-.112l-.054-.13c.123.021.321.051.321.051l.371.024M115.233,7.3s.015.03.027.059c0,.027-.012.062-.021.1a.336.336,0,0,0-.16-.1l-.219-.012a.346.346,0,0,0,.322-.18c.018.048.051.133.051.133m-2.206-.578,0,0V6.7c0-.109.039-.148.08-.171.006,0,.188-.061.262-.088a1.027,1.027,0,0,0,.337.079h.307l.566-.021a1.315,1.315,0,0,1,.414.041c.021.012.061.026.085.12,0,0,.011.05.021.112a.356.356,0,0,0-.244-.079h-.481l-.123-.012H114.1a1.05,1.05,0,0,0-.457.073c-.027.014-.073.041-.073.041s-.067-.02-.067-.02l-.189-.057-.2-.006-.153.023Zm-.009.628.12-.041.064.012.132.009.212-.064.073-.026c-.008,0,.2.073.2.073l.026.008.044,0a4.466,4.466,0,0,0,.585-.035l-.015.012.165.024c.011.006.141.014.2.018-.023,0-.245.02-.245.02l-.228.02-.174-.006-.2-.017-.251.107s-.02.006-.042.021a.258.258,0,0,0-.045-.021c.006,0-.244-.068-.244-.068l-.142.008-.141.015c-.1,0-.12-.02-.12-.02,0-.029,0-.035.026-.051m1.174.912-.958-.024c-.236-.009-.236-.1-.236-.147S113,8,113.117,8h.089l.094.009.3-.08a.57.57,0,0,1,.076-.035c.029.006.079.02.079.02l.194.057a5.772,5.772,0,0,0,.725.02L115,7.977a.464.464,0,0,0,.192-.088V7.9a.107.107,0,0,1,.006.045c0,.2-.082.254-.16.283l-.542.029-.3,0m1.041,5.258c-.012,0-.9.012-.9.012s-.154.067-.225.1a.517.517,0,0,0-.076-.029c.008,0-.25-.061-.25-.061l-.209,0c.015-.067.036-.074.053-.079l.213-.021.268.018.274-.079a.164.164,0,0,1,.057-.033l.126.024c-.008,0,.289.048.289.048l.1-.012h.106c.057,0,.186.012.186.062Zm.027-.728-.012.024a2.569,2.569,0,0,1-.3.011h-.3l-.245.077s-.038.02-.062.036l-.088-.03c0,.006-.268-.059-.268-.059l-.312-.008a.221.221,0,0,1-.11-.039c0-.02,0-.056.145-.056h.094l.1.008.248-.083,0,0c.07.027.189.077.189.077l.12,0,.115-.012.312.012.325,0,.054.008Zm-.352-.817c.056,0,.325,0,.325.1,0,.021,0,.068-.168.068h-.112l-.094-.006h-.389a.682.682,0,0,0-.324.083l-.085-.038-.026-.009-.247-.014-.106,0-.067,0v0c0-.018,0-.047,0-.047,0-.053.008-.1.127-.139l.36-.02Zm6.721,2.127c-.061-.632-.082-1.1-.082-1.408a1.029,1.029,0,0,0-.218-.658.884.884,0,0,1-.2-.418c0-.082.067-.186.2-.315a.955.955,0,0,0,.218-.738,15.033,15.033,0,0,0-.3-3.7,2.3,2.3,0,0,0-1.473-1.708A11.309,11.309,0,0,0,116,4.717h-.835c-.345.012-.613.018-.812.018a1.615,1.615,0,0,0-.914.26c-.257.16-.389.241-.4.241a1.621,1.621,0,0,1-.595-.163,1.77,1.77,0,0,0-.614-.156c-2.127,0-3.5.228-4.119.7-.424.316-.641,1.159-.641,2.52a1.577,1.577,0,0,0,.088.421,1.246,1.246,0,0,1,.1.418,2.706,2.706,0,0,1-.224.393,1.215,1.215,0,0,0-.218.579c0,.679-.038,1.685-.12,3.041q-.1,1.988-.1,3.023,0,3.277,2.13,3.28a3.7,3.7,0,0,0,.853-.144,3.833,3.833,0,0,1,.831-.135,1.54,1.54,0,0,1,.557.221,1.883,1.883,0,0,0,.861.215c.2,0,.5-.009.912-.036.427-.029.741-.041.953-.041l2.667.059a21.644,21.644,0,0,0,2.6-.059,3.8,3.8,0,0,0,1.826-.455,1.94,1.94,0,0,0,.8-1.635c.012-.144.035-.434.059-.873.038-.4.057-.7.057-.912,0-.319-.027-.787-.077-1.393M119.5,7.016l.065.189a.38.38,0,0,0,.017.05,1.67,1.67,0,0,1-.094.292.516.516,0,0,1-.174.1s-.123.1-.135.1l-.029-.008s-.138-.042-.188-.056l-.3-.036-.182.015-.107,0c-.1,0-.112-.029-.116-.041a.98.98,0,0,1-.07-.478c0-.284.054-.39.088-.39a.226.226,0,0,0,.182-.107l.174.083.238-.03.18-.014a.734.734,0,0,1,.3.039c.054.029.132.089.151.284m-.248,6.52.107.133a2.875,2.875,0,0,0-.664.05l-.156.076-.006.012-.014-.012-.085-.024c.039-.051.076-.1.115-.157,0,.006.107-.233.107-.233s.011-.047.021-.086a.235.235,0,0,0,.151-.124s.035-.068.044-.082a.124.124,0,0,0,.027.024c.008.014.247.18.257.189v.014l.094.221m-.1,1.953a.521.521,0,0,1,.062-.21.163.163,0,0,1,.094-.018c.135,0,.228.024.251.064a1.533,1.533,0,0,1,.062.591l-.015.129h-.215s-.092,0-.165,0a.392.392,0,0,1-.012-.048c0-.006-.017-.25-.017-.25a.726.726,0,0,0-.092-.15.988.988,0,0,0,.047-.11m-.48-.973c0,.091-.035.109-.042.115a.282.282,0,0,0-.106.116.309.309,0,0,0-.147-.054.583.583,0,0,0-.539.242.65.65,0,0,0-.048.13c-.011-.05-.008-.091-.021-.142l-.2-.54s-.048-.116-.073-.186c.014-.026.039-.079.056-.115l0,.014c.024.045.08.177.212.177a.467.467,0,0,0,.2-.054l.042.13a.289.289,0,0,0,.231.136.449.449,0,0,0,.306-.126s.012-.011.018-.011l.154.073a.079.079,0,0,1-.065-.026Zm-.416,1.089a.448.448,0,0,1,.05-.225c.021-.012.124-.056.124-.056a.338.338,0,0,0,.175-.11c.006,0,.012.014.02.014a.521.521,0,0,1,.032.168c0,.006.056.213.056.213a.173.173,0,0,0,.015.029l-.009.03-.033.112-.018.16c0-.006-.011.165-.011.165s-.045.026-.086.045a.161.161,0,0,0-.091-.03c-.212,0-.228-.082-.228-.18Zm.1-6.372c.036.024.036.038.036.042a.808.808,0,0,1-.12.293l-.182.405c.012-.027-.177.144-.177.144l-.416.405c-.024.027-.032.054-.053.082l-.008-.883a3.036,3.036,0,0,0-.03-.445.347.347,0,0,0,.148.091l.253.009a.709.709,0,0,0,.486-.169.5.5,0,0,0,.062.026m-.048-.039a.215.215,0,0,0,.057-.039l-.044.038-.014,0m-.112-.455a.328.328,0,0,0-.068-.032.658.658,0,0,0-.33-.11.511.511,0,0,0-.374.127l.006-.026.021-.416a1.958,1.958,0,0,1,.077-.572,1.692,1.692,0,0,0,.085-.433,1.139,1.139,0,0,0,.292.908.955.955,0,0,0,.507.166c.067.012.1.041.1.136,0,.121-.042.132-.061.139a1.843,1.843,0,0,0-.259.112m-.576-1.794,0,0,0,.041,0-.038m-8.066,10.066-.009.045-.021-.077a.063.063,0,0,0,.011-.02l.033-.132c-.008.057,0,.127-.014.183m.039-2.653-.047-.13a.3.3,0,0,0-.234-.124l-.113.006h-.044a.125.125,0,0,1-.009-.039v-.3l0-.015c.091.112.169.179.248.179.1,0,.259-.061.275-.387.035.011.065.038.1.038a.478.478,0,0,0,.34-.153c.061.029.153.068.153.068.044,0,.082,0,.082.135,0,.064-.006.151-.056.169-.026.006-.239.023-.239.023l-.071,0c-.047-.018-.227-.048-.334.216,0,.009-.035.218-.05.321m0,.827a.356.356,0,0,0-.2-.057l-.189.044a.506.506,0,0,0-.074.008.3.3,0,0,1-.032-.172.649.649,0,0,1,.018-.168h.213l.02,0a.337.337,0,0,0,.234-.2Zm.545.8c0-.222.041-.287.056-.3a.177.177,0,0,1,.141-.048.572.572,0,0,1,.029.21c0,.245-.048.3-.048.3l-.153.014,0-.008a1.413,1.413,0,0,0-.027-.169m.08-1c-.015,0-.041-.03-.056-.048a.363.363,0,0,1-.051-.189c0-.172.067-.231.213-.247a.858.858,0,0,1,.026.265c0,.219-.076.219-.132.219m8.222,3.523c-.413-.038-1.286.1-2.62.1-.207,0-.546.024-1.038.059-.449.011-.808.021-1.071.021-.186,0-.478-.011-.873-.021-.41-.035-.722-.059-.918-.059a2.725,2.725,0,0,0-1.03.28c-.277.1-.711-.268-.876-.424a.719.719,0,0,0-.31-.118c.21-.033.271-.337.295-.492l.1-.706c.039-.256.089-.3.1-.306s.15-.021.162-.021a.023.023,0,0,0-.006.015.467.467,0,0,0,.006.061c.008.018.011.359.011.359v.493c0,.271.017.569.228.569s.262-.241.295-.711l.035-.706c.012-.082.048-.1.121-.1l.1.011c.009,0,.024.029.032.08,0,.006.032.688.032.688.029.464.086.7.29.7.254,0,.254-.362.254-.525l-.033-.871-.027-.855-.051-.52-.039-.28.051-.18.011-.054.039-.265c0-.006.027-.322.027-.322a.687.687,0,0,0-.156-.469.509.509,0,0,0-.378-.18.408.408,0,0,0-.238.067l-.061-.054h.006l-.006,0v-.018l0-.129c0-.057.02-.1.107-.116l.286,0h.091l.12.009a.38.38,0,0,0,.407-.419l-.076-.238a.251.251,0,0,0-.218-.121h-.154l0-.029,0-.017.014-.017.068-.312L111.5,12.1a.259.259,0,0,0-.239-.194c-.29,0-.29.424-.29.588l-.015.259c0,.02-.033-.023-.033-.2l-.012-.4c-.044-.309-.233-.345-.315-.345-.259,0-.259.38-.259.561l.011.169,0,.136c0,.07-.021.076-.039.091-.006,0-.2.062-.2.062l-.032.014-.041.026,0,0a.369.369,0,0,0-.257-.112.336.336,0,0,0-.319.28c-.064-.062-.239-.238-.239-.238a.437.437,0,0,1-.1-.283v-.316c-.033-.313-.188-.356-.277-.356-.118,0-.26.073-.26.427v.262a.9.9,0,0,1-.1.309.811.811,0,0,1-.15.254c-.009,0-.238.156-.238.156a.492.492,0,0,0-.236.405c0,.356.186.395.263.395a.675.675,0,0,0,.49-.322c-.015.073-.033.156-.033.156l.006.1,0,.094a.447.447,0,0,0,0,.048h-.006v.008s-.03.033-.038.039a.27.27,0,0,0-.151-.047l-.241.088a.377.377,0,0,0-.147.318.3.3,0,0,0,.529.236.144.144,0,0,0,.03.027c.009.011.026.059.026.236,0,0-.009.083-.009.112-.064.015-.138.03-.138.03l-.015.009a.252.252,0,0,0-.18-.073c-.083,0-.363.033-.363.43,0,.316.156.365.245.365a.453.453,0,0,0,.318-.115l.011-.008c.079.03.2.067.2.067l.228,0c.012,0,.227-.023.227-.023l.082.014.171.009a.374.374,0,0,0,.244-.083c0,.166.008.318.008.318,0,.175-.023.324-.035.484a.765.765,0,0,0-.218-.57.864.864,0,0,0-.495-.1,1.2,1.2,0,0,0-.5.08.649.649,0,0,0-.325.641l.026.224c0,.008.026.148.026.148l-.026.123-.026.221a.892.892,0,0,0,.2.681.713.713,0,0,0,.5.139,1.132,1.132,0,0,0,.549-.07c.047-.026.068-.089.1-.132l0,.012a.39.39,0,0,0,.133.352,2.269,2.269,0,0,1-.225-.036,6.665,6.665,0,0,0-1,.006c-.941-.15-.914-1.4-.914-3.271,0-.581.035-1.445.1-2.584.08-1.153.144-1.8.144-2.4,0-.182.15-.6-.015-.782-.144-.2-.239-.321-.221-.354.082-.16.351-.254.551-.6a1.381,1.381,0,0,0,.126-.663.337.337,0,0,0,.26.107.913.913,0,0,0,.484-.071l.086-.076.224.1a1.357,1.357,0,0,0,.2-.012l0,.008.036.009c-.014,0-.139.431-.139.431a3.678,3.678,0,0,0-.165.622l-.024.3A.5.5,0,0,1,109,9.1l-.039.036c-.017.023-.254.387-.254.387l-.225.316c-.009,0-.3.25-.3.25-.2.174-.293.287-.307.39l-.006.077.047.248c.059.177.166.221.25.221s.166-.057.324-.212c0,0,.154-.15.278-.277a.44.44,0,0,0,.073.2l.238.109.23-.023c-.02,0,.188-.006.188-.006l.048.011s0,0,0,.014c0,.033.008.1.008.1l-.008.74.017.283c.014.077.064.3.248.3.209,0,.321-.191.321-.573l-.009-.231,0-.3a1.119,1.119,0,0,1,.035-.374c.07.006.21.023.21.023l.313.021a.277.277,0,0,0,.293-.272c.312.416.484.507.607.507l.247-.12a.414.414,0,0,0,.1-.286.439.439,0,0,0-.1-.307A6.928,6.928,0,0,1,111.2,9.8a3.12,3.12,0,0,1-.424-.675l-.185-.408-.006-.011s-.079-.088-.126-.144c0-.047-.009-.121-.009-.121a1.552,1.552,0,0,0-.132-.514s-.065-.2-.1-.29a.74.74,0,0,1,.2-.017l1,.079c.262,0,.359-.16.359-.307a.487.487,0,0,0-.157-.36l-.283-.113L111,6.935h-.578l-.333-.035h0c0-.015-.023-.116-.023-.116l.032-.3.039-.368a.393.393,0,0,0-.112-.281.3.3,0,0,0-.236-.121l-.224.126c0,.011-.11.233-.11.233l.042.411.035.262a.406.406,0,0,1-.033.212c-.006,0-.189,0-.189,0l-.3.083s-.088.027-.127.038c-.026-.015-.189-.1-.189-.1l-.1-.008c.014,0-.142-.023-.142-.023l-.284.088a.354.354,0,0,0-.1.107,1.148,1.148,0,0,1,0-.186c.092-.411-.02-.752.657-1.018a8.623,8.623,0,0,1,2.315-.333,1.961,1.961,0,0,1,.355.038c.162.011.29.018.4.018a3.488,3.488,0,0,0,.817-.089,1.6,1.6,0,0,1,.387-.077.881.881,0,0,1,.516.062,2.221,2.221,0,0,0,.791.153,8.647,8.647,0,0,0,.973-.077,9.558,9.558,0,0,1,1-.082,8.312,8.312,0,0,1,3.009.47,1.134,1.134,0,0,0-.135-.023h-.26a.888.888,0,0,0-.425.074l-.032.017,0,.012-.041.061-.171-.092a.562.562,0,0,0-.348.11l-.059-.286a.284.284,0,0,0-.271-.192c-.241,0-.278.337-.3.5l-.024.508s.006.059.015.116c-.026.05-.094.188-.094.188l-.017.026-.077.331a1.192,1.192,0,0,1-.293.415l-.4.336-.1.21c0,.006-.03.188-.03.188l.045.209a.26.26,0,0,0,.225.159.611.611,0,0,0,.366-.2c.011.082.036.287.036.287l0,.012.068.112a.405.405,0,0,1-.024.064l-.057.277-.015.9-.024.507-.018.519c0,.393.018.752.271.752.309,0,.342-.442.346-.714a.23.23,0,0,0,.047.006c.135,0,.28-.1.5-.34a2.584,2.584,0,0,0,.345-.513c.006-.011.067-.21.1-.312a.278.278,0,0,0,.062-.036c0,.215-.012.5-.012.5l-.018.735.042.352a.38.38,0,0,0,.185.274.387.387,0,0,0-.079.116l-.068.227c0-.015-.06.2-.06.2l-.1.245,0,.023-.009.1c-.039.011-.085.018-.085.018l-.3.295a1.143,1.143,0,0,1-.2.133,1.2,1.2,0,0,0,.032-.212l-.048-.415a.578.578,0,0,0-.221-.363,1.665,1.665,0,0,0-.791-.336c-.129,0-.336.068-.336.522l.044.44.039.327-.056.263a14.937,14.937,0,0,0-.035,1.656V16.3l-.038,1.421c0,.359.017.7.269.7s.3-.351.3-.967v-.422c.026-.089.077-.11.1-.115a1.079,1.079,0,0,0,.557-.49,1.619,1.619,0,0,0,.1-.216.947.947,0,0,0,.073.349.511.511,0,0,0,.487.236.328.328,0,0,0,.283-.126.967.967,0,0,0,.112.059.146.146,0,0,1-.038-.014l.008.061-.047.153-.067.271v.024l-.035.012a2.474,2.474,0,0,1-.2.159.591.591,0,0,1-.216.092l-.315.085a.281.281,0,0,0-.2.3c0,.266.142.428.375.428l.222-.083a1.082,1.082,0,0,1,.153-.062.549.549,0,0,0,.277-.166,1.016,1.016,0,0,0,.257-.537.214.214,0,0,0,.121-.1c.02.026.05.054.05.057s.033.118.033.118.094.18.094.18c.369.47.533.584.625.625.009.008.015,0,.024.012a2.854,2.854,0,0,1-1.343.165m-7.326-4.059a.653.653,0,0,1,.048.292c0,.082.006.142.008.2-.03,0-.213-.02-.213-.02a.114.114,0,0,1-.065-.012.72.72,0,0,1-.017-.2.437.437,0,0,1,.1-.31c.021,0,.033.018.061.018l-.045-.006s.056.018.124.035m.064,1.168c-.014.115-.03.238-.03.238a.629.629,0,0,1-.044.244h-.08c-.015,0-.073.006-.094.006l-.015-.165a.771.771,0,0,1,.027-.281l.056,0s.109-.027.18-.039m.021.012c.009,0,.021-.018.026-.021l.021,0h.012Zm-2.1,1.256a1.1,1.1,0,0,0,.044.12c-.024.076-.062.21-.062.21,0,.135-.05.162-.1.179l-.3.012c-.056,0-.083-.011-.092-.021a.593.593,0,0,1-.023-.1c0-.008-.051-.238-.051-.238l.012.051v-.1a.806.806,0,0,1,.056-.135c0-.009.033-.18.033-.18,0-.024,0-.091.225-.091a.39.39,0,0,1,.179.027c.026.012.056.077.067.21v.024Zm.293-7.62a.587.587,0,0,0,.053-.047l.021-.018.033-.035a.9.9,0,0,0,.073-.18,2.808,2.808,0,0,0,.045.28c0,.006-.03.1-.03.1s-.042.2-.042.2l-.011.458a.224.224,0,0,1-.035.1L109.4,10.1c-.021,0-.183-.02-.183-.02s-.076.02-.148.032a2.889,2.889,0,0,0,.215-.384,1.188,1.188,0,0,0,.116-.463m.631-.036a.918.918,0,0,0,.067-.31c.026.11.061.231.061.231a4.891,4.891,0,0,0,.487.938c-.017,0-.033-.008-.045-.008l-.275.032-.189.017a.48.48,0,0,1-.021-.177l-.015-.525-.009-.029s-.051-.141-.059-.169m7.036,5.552a.585.585,0,0,1,.141.236,1.288,1.288,0,0,1,.106.486.915.915,0,0,1-.109.446c-.047.079-.1.171-.175.171l-.057,0c0-.03-.009-.11-.009-.11l-.009-.758c0-.316.059-.466.113-.466m-.13-1.315-.014-.038c0-.021.039-.121.039-.121s.02-.227.033-.38a.606.606,0,0,1,.156.051.352.352,0,0,1,.136.295.979.979,0,0,1-.179.463,1.252,1.252,0,0,1-.121.183c-.008-.112-.012-.275-.012-.275s-.039-.179-.039-.179m3.96.056v1.035a25.838,25.838,0,0,1-.1,2.7,1.324,1.324,0,0,1-.516.8l.03-.1,0,0a.229.229,0,0,0-.133-.227L120.1,17.7c.023.015-.289-.172-.289-.172l-.234-.18-.08-.112a.368.368,0,0,0-.142-.124c-.018-.089-.057-.268-.076-.321,0-.014.009-.059.009-.067,0,.018.16.026.16.026l.183.006a.435.435,0,0,0,.452-.275,2.615,2.615,0,0,0,.083-.9c0-.451-.1-.738-.319-.876a1.375,1.375,0,0,0-.65-.1.074.074,0,0,0,.012-.045.347.347,0,0,0-.008-.057c0-.113.03-.139.03-.139l.109.041.029.009.061.014a.356.356,0,0,0,.359-.306.505.505,0,0,0,.281.121c.073,0,.3-.032.3-.4l-.1-.278-.044-.032-.351-.257L119.564,13a.638.638,0,0,0-.144-.054c-.011-.051-.036-.15-.036-.15s-.1-.156-.148-.222c-.006-.033-.074-.292-.074-.292a.317.317,0,0,0-.194-.241.905.905,0,0,0,.113-.523s-.008-1.136-.008-1.374a.388.388,0,0,0,.127.145l.073.05a.639.639,0,0,0,.077.319l.268.457c.172.266.307.378.451.378.113,0,.3-.059.3-.474,0-.08-.041-.177-.259-.457l-.3-.351c-.012-.006-.156-.1-.156-.1a1.286,1.286,0,0,0-.256-.61s-.067-.116-.127-.2l.1-.012.557.054a.364.364,0,0,0,.416-.374c0-.142-.073-.375-.536-.375h-.3l-.293,0c-.085,0-.139-.011-.139-.175,0-.036.006-.057.062-.073,0,0,.073-.07.124-.115.047.017.222.067.222.067a.465.465,0,0,0,.437-.225,1.271,1.271,0,0,0,.1-.578L120,7.339l-.014-.061.038-.156.056-.325a.945.945,0,0,0-.017-.123,5.8,5.8,0,0,1,.694,2.653c.064,1.085-.116,1.691-.051,1.809l.157.257a.561.561,0,0,1,.123.236c0,.018-.062.15-.178.4-.07.145.127.974.088,1.49m-5.693.632h-.274c-.012,0-.295.089-.295.089s-.059.029-.1.041l-.129-.036-.352-.068-.54.017-.507.03c-.113,0-.142-.024-.142-.024a.424.424,0,0,1-.027-.189V12.981l-.079-.2,0,0a.53.53,0,0,0,.092-.321l.012-.328c0-.4-.266-.439-.34-.439a.284.284,0,0,0-.234.126l-.088.238.015.224c0,.008.024.213.024.213l.07.236s.024.05.03.059c-.009,0-.023.045-.023.045l-.047.145-.014.582-.024.245-.018.269a1.1,1.1,0,0,0,.1.56.494.494,0,0,0,.452.207l.048,0a.3.3,0,0,0-.127.25,1.1,1.1,0,0,0,.115.534.187.187,0,0,1,.017.033c-.014.032-.038.083-.038.083s-.089.241-.089.241a12.955,12.955,0,0,0-.085,1.351,1.521,1.521,0,0,0,.23.917,1.129,1.129,0,0,0,.935.354,1.193,1.193,0,0,0,.452-.076l.265-.138.074-.05a.684.684,0,0,0,.357-.088,2.548,2.548,0,0,0,.537-.5,1.2,1.2,0,0,0,.327-.687.321.321,0,0,0-.623-.12,2.294,2.294,0,0,1-.275.508,2.356,2.356,0,0,1-.414.405h0s-.11.129-.116.129l-.1-.029-.242.024-.189.017a.588.588,0,0,1-.475-.15.865.865,0,0,1-.094-.505l.03-.638.039-.67-.056-.259a.6.6,0,0,0-.029-.132c.015-.03.045-.12.045-.12l.077-.349a.394.394,0,0,0-.145-.348l.162-.006.61-.02.425-.044.12-.053c-.009,0-.006,0,0,0s.05.026.05.026.21.076.21.076l.28.006.9.041a.292.292,0,0,0,.3-.333l-.032-.16c-.051-.12-.153-.2-1.047-.2M16.854,14h1.852V12.517H14.462V11.355H12.978v1.162H8.735V14h1.852A5.91,5.91,0,0,1,8.6,17.433v1.784A7.307,7.307,0,0,0,12.095,14h.883v5.216h1.484V14h.883a7.3,7.3,0,0,0,3.491,5.216V17.433A5.894,5.894,0,0,1,16.854,14m-.762-3.11a2.228,2.228,0,0,0,2.227-2.225V7.172a2.229,2.229,0,0,0-2.227-2.227H9.426v5.947h6.665ZM10.91,6.429h5.181a.743.743,0,0,1,.743.743V8.665a.743.743,0,0,1-.743.741H10.91Zm-3.5-1.484A10.685,10.685,0,0,1,4.679,9.753v1.908a8.973,8.973,0,0,0,1.632-1.476v9.033H7.8V7.973A15.492,15.492,0,0,0,8.951,4.945Zm17.9,1.942a1.508,1.508,0,0,0-1.445-1.942H20.745V19.217h1.484V6.429h1.634a.022.022,0,0,1,.02.011.021.021,0,0,1,0,.021l-1.157,3.845c1.508,3.97,1.339,5.024,1.1,5.3a.288.288,0,0,1-.228.1h-.926v1.484h.864a1.764,1.764,0,0,0,1.417-.616c.716-.837.852-2.2-.666-6.319ZM32.377,9.23l.309.8h1.59l-1.77-4.611a.742.742,0,0,0-.693-.477H27.159l-1.953,5.087H26.8l.309-.8H29v1.162H25.955v4.83h2.526a6.185,6.185,0,0,1-2.974,2.384v1.611a8.071,8.071,0,0,0,4.234-3.177,8.062,8.062,0,0,0,4.233,3.177V17.606A6.192,6.192,0,0,1,31,15.222h.744a2.229,2.229,0,0,0,2.227-2.227v-.377a2.23,2.23,0,0,0-2.227-2.227H30.483V9.23ZM29,13.562v.017c0,.054-.014.106-.02.159h-1.54V11.877H29Zm2.746-1.685a.743.743,0,0,1,.743.741v.377a.743.743,0,0,1-.743.743H30.5c-.008-.053-.017-.1-.021-.159v-1.7ZM27.675,7.746l.505-1.316H31.3l.505,1.316Zm37.883,6.98V6.03H64.074v8.7c0,5.124,4.617,6.016,10.6,1.794V14.73c-6.547,4.582-9.111,3.34-9.111,0m-20.25,3.006c-1.135,0-1.269-.738-1.269-1.51V14.337a4,4,0,0,0,3.174-3.906V8.936a4,4,0,0,0-3.991-3.991H36.444v9.476H38.86c-.427,2.057-1.939,2.982-3.873,3.3v1.5c3.4-.457,5-2.413,5.382-4.8h2.183v1.8c0,1.771.826,2.994,2.755,2.994a23.684,23.684,0,0,0,3.381-.315V17.4a24.451,24.451,0,0,1-3.381.33m-7.379-11.3h5.293a2.5,2.5,0,0,1,2.122,1.18H37.928Zm0,2.664h7.8v1.18h-7.8Zm0,3.844v-1.18h7.416a2.5,2.5,0,0,1-2.122,1.18Z" transform="translate(2.399 2.419)" fill="#fff"/>
      </g>
    </g>
  </g>
</svg>
