<svg xmlns="http://www.w3.org/2000/svg" width="391.484" height="152.288" viewBox="0 0 391.484 152.288">
  <g id="グループ_209" data-name="グループ 209" transform="translate(-1.719 23.083) rotate(-8)">
    <path id="パス_993" data-name="パス 993" d="M0,0,50.054,6.342,32.4,12.059Z" transform="translate(339.373 42.885)" fill="#6b6b6b"/>
    <path id="パス_994" data-name="パス 994" d="M0,11.571,14.818,16l11-11.571L11.006,0Z" transform="translate(0 12.351)" fill="#4aa3d5"/>
    <path id="パス_995" data-name="パス 995" d="M0,14.215,7.283,0,23.368,2.887,16.1,17.111Z" transform="translate(223.612 27.559)" fill="#a4cced"/>
    <path id="パス_996" data-name="パス 996" d="M0,7.241,18.447,0,25.52,5.082,7.069,12.323Z" transform="translate(-11.423 99.404)" fill="#6b6b6b"/>
    <path id="パス_997" data-name="パス 997" d="M0,15.344.556,0,19.291,1.69l-.566,15.334Z" transform="translate(87.004 125.706)" fill="#fce952"/>
    <path id="パス_998" data-name="パス 998" d="M0,3.857,19.95,0l2.5,5.187L2.494,9.036Z" transform="translate(201.133 59.142)" fill="#fff"/>
    <path id="パス_999" data-name="パス 999" d="M0,0,5.64.175l1.213,4.61L1.212,4.6Z" transform="translate(123.466 48.97)" fill="#fff"/>
    <path id="パス_1000" data-name="パス 1000" d="M0,5.1.636,0,6.748.622,6.112,5.734Z" transform="translate(294.391 23.795)" fill="#4aa3d5"/>
    <path id="パス_1001" data-name="パス 1001" d="M0,1.162,8.683,0l.453,2.049L.46,3.2Z" transform="translate(297.581 46.084)" fill="#4aa3d5"/>
    <path id="パス_1002" data-name="パス 1002" d="M0,3.731,5.267,0,9.25,1.478,3.978,5.216Z" transform="translate(111.719 26.986)" fill="#6b6b6b"/>
    <path id="パス_1004" data-name="パス 1004" d="M0,3.557.554,0l4.2.45L4.2,4.011Z" transform="translate(35.59 41.916)" fill="#fff"/>
    <path id="パス_1006" data-name="パス 1006" d="M4.2,0,0,4.169,4.484,5.406,8.677,1.246Z" transform="translate(157.212 0)" fill="#fff"/>
  </g>
</svg>
