<svg xmlns="http://www.w3.org/2000/svg" width="377.237" height="152.186" viewBox="0 0 377.237 152.186">
  <g id="グループ_205" data-name="グループ 205" transform="translate(36.175 -6.141) rotate(13)">
    <path id="パス_1007" data-name="パス 1007" d="M0,5.295l29.079,5.668,6.55-5.289L6.544,0Z" transform="translate(328.19 59.711)" fill="#fce952"/>
    <path id="パス_1009" data-name="パス 1009" d="M15.307,0,0,1.855,3.149,15.413l15.307-1.858Z" transform="translate(210.073 -10.041)" fill="#a4cced"/>
    <path id="パス_1010" data-name="パス 1010" d="M13.874,0,0,4.15,10.3,14.984l13.865-4.15Z" transform="translate(-8.088 110.795)" fill="#4aa3d5"/>
    <path id="パス_1011" data-name="パス 1011" d="M21.309,15.1l9.246-5.487L9.243,0,0,5.484Z" transform="translate(17.689 2.218)" fill="#4aa3d5"/>
    <path id="パス_1012" data-name="パス 1012" d="M0,2.713,6.823,16.022l15.057-2.7L15.07,0Z" transform="translate(147.256 107.422)" fill="#a4cced"/>
    <path id="パス_1013" data-name="パス 1013" d="M0,4.76l17.27,6.778L23.893,6.78,6.618,0Z" transform="translate(37.605 27.956)" fill="#6b6b6b"/>
    <path id="パス_1014" data-name="パス 1014" d="M0,4.85,18.681,8.46,21.023,3.6,2.337,0Z" transform="translate(191.089 36.097)" fill="#fff"/>
    <path id="パス_1015" data-name="パス 1015" d="M0,4.483l5.281-.167L6.418,0,1.137.175Z" transform="translate(118.371 49.599)" fill="#fff"/>
    <path id="パス_1016" data-name="パス 1016" d="M0,.59.6,5.367l5.723-.583L5.72,0Z" transform="translate(203.528 5.657)" fill="#4aa3d5"/>
    <path id="パス_1017" data-name="パス 1017" d="M0,1.911,8.129,3l.424-1.918L.43,0Z" transform="translate(311.52 73.154)" fill="#4aa3d5"/>
    <path id="パス_1019" data-name="パス 1019" d="M4.5,2.467,3.139,0,0,.612,1.359,3.077Z" transform="translate(278.61 1.61)" fill="#4aa3d5"/>
    <path id="パス_1020" data-name="パス 1020" d="M0,.424.519,3.755l3.93-.422L3.93,0Z" transform="translate(36.096 56.932)" fill="#fff"/>
    <path id="パス_1021" data-name="パス 1021" d="M6.537.035,1.863,0,0,3.761,4.674,3.8Z" transform="translate(158.787 11.725)" fill="#282828"/>
    <path id="パス_1022" data-name="パス 1022" d="M0,1.159l3.93,3.9,4.2-1.168L4.2,0Z" transform="translate(149.968 94.869)" fill="#fff"/>
    <path id="パス_1023" data-name="パス 1023" d="M0,5.868,23.87,9.608l1.657-5.871L1.643,0Z" transform="translate(0 51.721)" fill="#fce952"/>
  </g>
</svg>
