<svg xmlns="http://www.w3.org/2000/svg" width="395.844" height="137.57" viewBox="0 0 395.844 137.57">
  <g id="グループ_207" data-name="グループ 207" transform="translate(40.171 0.879) rotate(9)">
    <path id="パス_991" data-name="パス 991" d="M0,4.462,4.865,0,26.678,5.172l-4.87,4.46Z" transform="translate(344.589 69.988)" fill="#fce952"/>
    <path id="パス_994" data-name="パス 994" d="M0,4.43,14.818,0l11,11.571L11.006,16Z" transform="translate(-30.051 51.108)" fill="#4aa3d5"/>
    <path id="パス_995" data-name="パス 995" d="M0,2.9,7.283,17.112l16.088-2.887L16.094,0Z" transform="translate(250.117 72.743)" fill="#a4cced"/>
    <path id="パス_997" data-name="パス 997" d="M0,1.68.556,17.024l18.734-1.69L18.725,0Z" transform="translate(50.899 -8.952)" fill="#fce952"/>
    <path id="パス_998" data-name="パス 998" d="M0,5.18,19.95,9.036l2.5-5.187L2.494,0Z" transform="translate(201.133 21.991)" fill="#fff"/>
    <path id="パス_999" data-name="パス 999" d="M0,4.788l5.64-.175L6.853,0,1.212.183Z" transform="translate(123.466 36.412)" fill="#fff"/>
    <path id="パス_1000" data-name="パス 1000" d="M0,.631l.636,5.1L6.748,5.11,6.109,0Z" transform="translate(67.89 95.5)" fill="#4aa3d5"/>
    <path id="パス_1001" data-name="パス 1001" d="M0,2.042,8.683,3.2l.453-2.049L.46,0Z" transform="translate(297.581 40.882)" fill="#4aa3d5"/>
    <path id="パス_1002" data-name="パス 1002" d="M0,1.487,5.267,5.216,9.25,3.738,3.977,0Z" transform="translate(45.472 93.294)" fill="#6b6b6b"/>
    <path id="パス_1003" data-name="パス 1003" d="M4.8,2.635,3.353,0,0,.659,1.452,3.291Z" transform="translate(220.15 -19.731)" fill="#4aa3d5"/>
    <path id="パス_1004" data-name="パス 1004" d="M0,.453.554,4.011l4.2-.45L4.2,0Z" transform="translate(35.59 44.243)" fill="#fff"/>
    <path id="パス_1005" data-name="パス 1005" d="M0,4.015,1.989,0,6.984.038,4.991,4.054Z" transform="translate(177.931 -25.414)" fill="#282828"/>
    <path id="パス_1006" data-name="パス 1006" d="M4.2,5.406,0,1.237,4.484,0,8.678,4.159Z" transform="translate(157.213 84.764)" fill="#fff"/>
  </g>
</svg>
