<svg xmlns="http://www.w3.org/2000/svg" width="368.059" height="147.707" viewBox="0 0 368.059 147.707">
  <g id="グループ_206" data-name="グループ 206" transform="translate(13.517 56.476) rotate(-13)">
    <path id="パス_1007" data-name="パス 1007" d="M0,5.668,29.079,0l6.55,5.289L6.545,10.963Z" transform="translate(319.421 27.232)" fill="#fce952"/>
    <path id="パス_1008" data-name="パス 1008" d="M0,2.387,10.272,0,25.047,7.522,14.774,9.907Z" transform="translate(226.804 0.183)" fill="#6b6b6b"/>
    <path id="パス_1009" data-name="パス 1009" d="M15.307,15.41,0,13.558,3.149,0,18.456,1.858Z" transform="translate(252.137 98.873)" fill="#a4cced"/>
    <path id="パス_1010" data-name="パス 1010" d="M13.874,14.984,0,10.834,10.3,0,24.17,4.15Z" transform="translate(2.775 11.563)" fill="#4aa3d5"/>
    <path id="パス_1011" data-name="パス 1011" d="M21.309,0l9.246,5.487L9.244,15.1,0,9.617Z" transform="translate(9.5 80.72)" fill="#4aa3d5"/>
    <path id="パス_1012" data-name="パス 1012" d="M0,13.309,6.823,0,21.881,2.7l-6.81,13.317Z" transform="translate(73.805 59.763)" fill="#a4cced"/>
    <path id="パス_1014" data-name="パス 1014" d="M0,3.611,18.679,0l2.342,4.856L2.335,8.46Z" transform="translate(191.089 55.374)" fill="#fff"/>
    <path id="パス_1015" data-name="パス 1015" d="M0,0,5.281.167,6.418,4.483,1.137,4.311Z" transform="translate(118.371 45.849)" fill="#fff"/>
    <path id="パス_1016" data-name="パス 1016" d="M0,4.777.6,0,6.319.583l-.6,4.785Z" transform="translate(216.638 8.148)" fill="#4aa3d5"/>
    <path id="パス_1017" data-name="パス 1017" d="M0,1.088,8.129,0l.424,1.918L.431,3Z" transform="translate(301.776 21.528)" fill="#4aa3d5"/>
    <path id="パス_1019" data-name="パス 1019" d="M4.5.612,3.139,3.082,0,2.465,1.359,0Z" transform="translate(283.649 94.498)" fill="#4aa3d5"/>
    <path id="パス_1020" data-name="パス 1020" d="M0,3.331.519,0l3.93.422L3.93,3.755Z" transform="translate(36.096 39.243)" fill="#fff"/>
    <path id="パス_1021" data-name="パス 1021" d="M6.538,3.761,1.863,3.8,0,.038,4.674,0Z" transform="translate(147.094 96.821)" fill="#282828"/>
    <path id="パス_1022" data-name="パス 1022" d="M0,3.9,3.93,0l4.2,1.168L4.2,5.061Z" transform="translate(149.967 0)" fill="#fff"/>
    <path id="パス_1023" data-name="パス 1023" d="M0,3.739,23.87,0l1.657,5.871L1.647,9.608Z" transform="translate(-24.596 46.452)" fill="#fce952"/>
  </g>
</svg>
