<svg xmlns="http://www.w3.org/2000/svg" width="386.646" height="132.133" viewBox="0 0 386.646 132.133">
  <g id="グループ_204" data-name="グループ 204" transform="translate(-18.409 62.903) rotate(-10)">
    <path id="パス_991" data-name="パス 991" d="M0,7.645l6.894,6.6L37.8,6.6,30.9,0Z" transform="translate(369.67 7.962)" fill="#fce952"/>
    <path id="パス_992" data-name="パス 992" d="M0,2.55,10.971,0l15.78,8.032L15.778,10.581Z" transform="translate(246.619 80.187)" fill="#6b6b6b"/>
    <path id="パス_993" data-name="パス 993" d="M0,0,33.994,7.156,22,13.606Z" transform="translate(364.025 28.053)" fill="#6b6b6b"/>
    <path id="パス_994" data-name="パス 994" d="M0,11.571,14.818,16l11-11.571L11.006,0Z" transform="translate(16.021 15.176)" fill="#4aa3d5"/>
    <path id="パス_996" data-name="パス 996" d="M0,7.241,18.447,0,25.52,5.082,7.069,12.323Z" transform="translate(18.339 61.223)" fill="#6b6b6b"/>
    <path id="パス_997" data-name="パス 997" d="M0,15.344.556,0,19.291,1.69l-.566,15.334Z" transform="translate(71.265 54.177)" fill="#fce952"/>
    <path id="パス_998" data-name="パス 998" d="M0,3.857,19.95,0l2.5,5.187L2.494,9.036Z" transform="translate(201.133 59.142)" fill="#fff"/>
    <path id="パス_999" data-name="パス 999" d="M0,0,5.64.175l1.213,4.61L1.212,4.6Z" transform="translate(123.466 48.97)" fill="#fff"/>
    <path id="パス_1000" data-name="パス 1000" d="M0,5.1.636,0,6.748.622,6.112,5.734Z" transform="translate(183.823 52.694)" fill="#4aa3d5"/>
    <path id="パス_1001" data-name="パス 1001" d="M0,1.162,8.683,0l.453,2.049L.46,3.2Z" transform="translate(328.682 74.058)" fill="#4aa3d5"/>
    <path id="パス_1003" data-name="パス 1003" d="M4.8.661l-1.45,2.63L0,2.633,1.452,0Z" transform="translate(278.622 79.549)" fill="#4aa3d5"/>
    <path id="パス_1004" data-name="パス 1004" d="M0,3.557.554,0l4.2.45L4.2,4.011Z" transform="translate(35.59 41.916)" fill="#fff"/>
    <path id="パス_1005" data-name="パス 1005" d="M0,.039,1.989,4.054l4.995-.038L5,0Z" transform="translate(158.137 86.115)" fill="#282828"/>
    <path id="パス_1006" data-name="パス 1006" d="M4.2,0,0,4.169,4.484,5.406,8.677,1.246Z" transform="translate(157.212 0)" fill="#fff"/>
  </g>
</svg>
